<?xml version="1.0" encoding="UTF-8" standalone="no"?>
<svg
   id="Layer_1"
   data-name="Layer 1"
   width="28.4"
   height="46.7"
   viewBox="0 0 28.4 46.7"
   version="1.1"
   sodipodi:docname="startmod.svg"
   inkscape:version="1.3.2 (091e20e, 2023-11-25, custom)"
   xmlns:inkscape="http://www.inkscape.org/namespaces/inkscape"
   xmlns:sodipodi="http://sodipodi.sourceforge.net/DTD/sodipodi-0.dtd"
   xmlns="http://www.w3.org/2000/svg"
   xmlns:svg="http://www.w3.org/2000/svg">
  <sodipodi:namedview
     id="namedview2"
     pagecolor="#ffffff"
     bordercolor="#000000"
     borderopacity="0.25"
     inkscape:showpageshadow="2"
     inkscape:pageopacity="0.0"
     inkscape:pagecheckerboard="0"
     inkscape:deskcolor="#d1d1d1"
     inkscape:zoom="17.408993"
     inkscape:cx="14.188069"
     inkscape:cy="23.35"
     inkscape:window-width="1920"
     inkscape:window-height="1009"
     inkscape:window-x="-8"
     inkscape:window-y="-8"
     inkscape:window-maximized="1"
     inkscape:current-layer="Layer_1" />
  <defs
     id="defs1">
    <style
       id="style1">
      .cls-1 {
        fill: #fff;
      }

      .cls-2 {
        fill: #efeee5;
      }
    </style>
  </defs>
  <g
     id="g2">
    <path
       class="cls-1"
       d="M14.2,1.7A12.5,12.5,0,0,1,26.7,14.2V32.5a12.5,12.5,0,0,1-25,0V14.2A12.5,12.5,0,0,1,14.2,1.7m0-1.7A14.25,14.25,0,0,0,0,14.2V32.5a14.2,14.2,0,1,0,28.4,0V14.2A14.25,14.25,0,0,0,14.2,0Z"
       id="path1"
       style="fill:#ff7822;fill-opacity:1" />
    <path
       class="cls-2"
       d="M14.2,1.7A12.5,12.5,0,0,0,1.7,14.2V32.5a12.5,12.5,0,0,0,25,0V14.2A12.5,12.5,0,0,0,14.2,1.7Z"
       id="path2"
       style="fill:#36c436;fill-opacity:1" />
  </g>
</svg>
